<svg width="132" height="24" viewBox="0 0 132 24" fill="none" xmlns="http://www.w3.org/2000/svg">
<g opacity="0.2">
<path d="M9.70703 19.293V5.29297L16 11.586C16.1875 11.7735 16.2928 12.0278 16.2928 12.293C16.2928 12.5581 16.1875 12.8124 16 13L9.70703 19.293Z" fill="#1E6EEB"/>
</g>
<g opacity="0.5">
<path d="M45.707 19.293V5.29297L52 11.586C52.1875 11.7735 52.2928 12.0278 52.2928 12.293C52.2928 12.5581 52.1875 12.8124 52 13L45.707 19.293Z" fill="#1E6EEB"/>
</g>
<g opacity="0.7">
<path d="M81.707 19.293V5.29297L88 11.586C88.1875 11.7735 88.2928 12.0278 88.2928 12.293C88.2928 12.5581 88.1875 12.8124 88 13L81.707 19.293Z" fill="#1E6EEB"/>
</g>
<g opacity="0.9">
<path d="M117.707 19.293V5.29297L124 11.586C124.188 11.7735 124.293 12.0278 124.293 12.293C124.293 12.5581 124.188 12.8124 124 13L117.707 19.293Z" fill="#1E6EEB"/>
</g>
</svg>
