<svg width="48" height="48" viewBox="0 0 48 48" fill="none" xmlns="http://www.w3.org/2000/svg">
<path d="M0 5.625C0 2.5184 2.5184 0 5.625 0H42.375C45.4816 0 48 2.5184 48 5.625V42.375C48 45.4816 45.4816 48 42.375 48H5.625C2.5184 48 0 45.4816 0 42.375V5.625Z" fill="white" fill-opacity="0.01"/>
<path fill-rule="evenodd" clip-rule="evenodd" d="M42.375 0.046875H5.625C2.54429 0.046875 0.046875 2.54429 0.046875 5.625V42.375C0.046875 45.4557 2.54429 47.9531 5.625 47.9531H42.375C45.4557 47.9531 47.9531 45.4557 47.9531 42.375V5.625C47.9531 2.54429 45.4557 0.046875 42.375 0.046875ZM5.625 0C2.5184 0 0 2.5184 0 5.625V42.375C0 45.4816 2.5184 48 5.625 48H42.375C45.4816 48 48 45.4816 48 42.375V5.625C48 2.5184 45.4816 0 42.375 0H5.625Z" fill="white" fill-opacity="0.14"/>
<path d="M5.95605 43.7953L6.26552 41.3428H7.66054L7.60923 41.775H6.70167L6.63272 42.3261H7.53708L7.48416 42.7483H6.58141L6.44992 43.7953H5.95605Z" fill="white"/>
<path d="M8.09355 43.7953L8.3485 41.7716H7.73918L7.7937 41.3428H9.4597L9.40679 41.7716H8.83916L8.58581 43.7953H8.09355Z" fill="white"/>
<path d="M0 5.625C0 2.5184 2.5184 0 5.625 0H42.375C45.4816 0 48 2.5184 48 5.625V42.375C48 45.4816 45.4816 48 42.375 48H5.625C2.5184 48 0 45.4816 0 42.375V5.625Z" fill="#16151B"/>
<path fill-rule="evenodd" clip-rule="evenodd" d="M42.375 0.046875H5.625C2.54429 0.046875 0.046875 2.54429 0.046875 5.625V42.375C0.046875 45.4557 2.54429 47.9531 5.625 47.9531H42.375C45.4557 47.9531 47.9531 45.4557 47.9531 42.375V5.625C47.9531 2.54429 45.4557 0.046875 42.375 0.046875ZM5.625 0C2.5184 0 0 2.5184 0 5.625V42.375C0 45.4816 2.5184 48 5.625 48H42.375C45.4816 48 48 45.4816 48 42.375V5.625C48 2.5184 45.4816 0 42.375 0H5.625Z" fill="#16151B"/>
<path d="M7.70801 35.0363L10.9574 10.5107H25.6052L25.0664 14.8329H15.537L14.813 20.3444H24.3088L23.7531 24.566H14.2742L12.8936 35.0363H7.70801Z" fill="#A61717"/>
<path d="M30.1517 35.0363L32.8287 14.7994H26.4308L27.0033 10.5107H44.4963L43.9407 14.7994H37.9806L35.3205 35.0363H30.1517Z" fill="#A61717"/>
<path d="M4.90576 36.788L8.21709 11.9121H23.1438L22.5948 16.296H12.8838L12.1461 21.8863H21.8227L21.2565 26.1682H11.597L10.1902 36.788H4.90576Z" fill="white"/>
<path d="M27.7769 36.788L30.5049 16.262H23.9852L24.5685 11.9121H42.3948L41.8286 16.262H35.755L33.0442 36.788H27.7769Z" fill="white"/>
</svg>
