<svg width="32" height="32" viewBox="0 0 32 32" fill="none" xmlns="http://www.w3.org/2000/svg">
<g clip-path="url(#clip0_3313_2409)">
<path d="M23.4843 17.1307L31.8376 25.484L27.6096 29.712C26.8727 30.4458 25.9974 31.026 25.0345 31.4187C24.0715 31.8115 23.0402 32.0091 22.0003 32C12.3363 32 0.000260135 19.664 0.000260135 10C-0.00819761 8.95998 0.189662 7.9286 0.582393 6.96554C0.975123 6.00248 1.55493 5.12686 2.28826 4.38933L6.51626 0.162667L14.8696 8.516L9.36959 14.016C11.0047 17.9017 14.0917 20.9959 17.9736 22.64L23.4843 17.1307ZM29.3336 13.3333H32.0003C31.9964 9.79831 30.5904 6.40917 28.0907 3.90953C25.5911 1.40989 22.202 0.00388213 18.6669 0V2.66667C21.4949 2.66984 24.2062 3.79467 26.2059 5.79437C28.2056 7.79407 29.3304 10.5053 29.3336 13.3333ZM24.0003 13.3333H26.6669C26.6648 11.2123 25.8213 9.17865 24.3214 7.67882C22.8216 6.17899 20.788 5.33545 18.6669 5.33333V8C20.0814 8 21.438 8.5619 22.4382 9.5621C23.4384 10.5623 24.0003 11.9188 24.0003 13.3333Z" fill="white"/>
</g>
<defs>
<clipPath id="clip0_3313_2409">
<rect width="32" height="32" fill="white"/>
</clipPath>
</defs>
</svg>
