<svg width="32" height="32" viewBox="0 0 32 32" fill="none" xmlns="http://www.w3.org/2000/svg">
<g clip-path="url(#clip0_3357_35)">
<path d="M28.5523 6.66667H22.667V0.781333L28.5523 6.66667ZM29.3337 9.33333V32H2.66699V4C2.66699 2.93913 3.08842 1.92172 3.83857 1.17157C4.58871 0.421427 5.60613 0 6.66699 0L20.0003 0V9.33333H29.3337ZM22.1483 18.048L20.267 16.1627L15.4803 20.9427C15.2267 21.1853 14.8893 21.3207 14.5383 21.3207C14.1874 21.3207 13.8499 21.1853 13.5963 20.9427L11.4817 18.8293L9.60033 20.7147L11.7137 22.828C12.0851 23.1995 12.5261 23.4942 13.0114 23.6953C13.4968 23.8963 14.017 23.9998 14.5423 23.9998C15.0677 23.9998 15.5879 23.8963 16.0732 23.6953C16.5586 23.4942 16.9995 23.1995 17.371 22.828L22.1483 18.048Z" fill="white"/>
</g>
<defs>
<clipPath id="clip0_3357_35">
<rect width="32" height="32" fill="white"/>
</clipPath>
</defs>
</svg>
