<svg width="32" height="32" viewBox="0 0 32 32" fill="none" xmlns="http://www.w3.org/2000/svg">
<path d="M16.0002 1.33301C12.599 1.33186 9.28595 2.41506 6.54234 4.42527C3.79872 6.43548 1.76741 9.26802 0.743453 12.5115C-0.280508 15.7549 -0.243792 19.2403 0.848267 22.4614C1.94033 25.6826 4.03086 28.4717 6.81621 30.4237L7.16154 30.6663H24.8389L25.1842 30.4237C27.9696 28.4717 30.0601 25.6826 31.1521 22.4614C32.2442 19.2403 32.2809 15.7549 31.257 12.5115C30.233 9.26802 28.2017 6.43548 25.4581 4.42527C22.7145 2.41506 19.4014 1.33186 16.0002 1.33301ZM8.08021 26.3343C5.89869 24.4263 4.48263 21.7923 4.09433 18.9202C3.70603 16.0482 4.37181 13.1327 5.96835 10.7139C7.56489 8.29509 9.98397 6.53689 12.7775 5.76498C15.571 4.99307 18.5496 5.25977 21.1615 6.51568L19.1269 8.55034C18.1242 8.18793 17.0664 8.00163 16.0002 7.99967C14.1034 7.9975 12.2511 8.57396 10.6905 9.65209C9.12994 10.7302 7.93535 12.2587 7.26622 14.0336C6.59708 15.8084 6.48525 17.7451 6.94565 19.5852C7.40604 21.4252 8.41676 23.0811 9.84287 24.3317L8.08021 26.3343ZM16.0002 19.9997C15.618 20.0047 15.2391 19.9275 14.8893 19.7733C14.5395 19.6191 14.227 19.3915 13.9728 19.1059C13.7187 18.8203 13.529 18.4834 13.4165 18.1181C13.304 17.7527 13.2713 17.3675 13.3208 16.9884C13.3702 16.6093 13.5006 16.2453 13.703 15.921C13.9054 15.5968 14.1752 15.3198 14.4941 15.109C14.813 14.8981 15.1734 14.7582 15.5511 14.6989C15.9287 14.6396 16.3147 14.6621 16.6829 14.765L23.0575 8.39034L24.9429 10.2757L18.5682 16.6503C18.6794 17.0447 18.697 17.4596 18.6198 17.8619C18.5425 18.2643 18.3725 18.6431 18.1232 18.9683C17.8739 19.2934 17.5522 19.556 17.1837 19.735C16.8151 19.9141 16.4099 20.0047 16.0002 19.9997ZM23.9202 26.3343L22.1575 24.3343C23.5648 23.108 24.5686 21.4849 25.0371 19.6779C25.5056 17.871 25.417 15.9647 24.7829 14.209L26.8175 12.1743C27.9504 14.5265 28.2805 17.1853 27.7571 19.743C27.2338 22.3007 25.8859 24.6162 23.9202 26.3343Z" fill="white"/>
</svg>
