<svg width="32" height="32" viewBox="0 0 32 32" fill="none" xmlns="http://www.w3.org/2000/svg">
<g clip-path="url(#clip0_3357_319)">
<path d="M12 16C16.4183 16 20 12.4183 20 8C20 3.58172 16.4183 0 12 0C7.58172 0 4 3.58172 4 8C4 12.4183 7.58172 16 12 16Z" fill="white"/>
<path d="M17.3907 18.668H6.60933C4.85708 18.6701 3.1772 19.3671 1.93817 20.6061C0.699135 21.8452 0.0021171 23.525 0 25.2773L0 32.0013H24V25.2773C23.9979 23.525 23.3009 21.8452 22.0618 20.6061C20.8228 19.3671 19.1429 18.6701 17.3907 18.668Z" fill="white"/>
<path d="M27.9997 13.332V9.33203H25.333V13.332H21.333V15.9987H25.333V19.9987H27.9997V15.9987H31.9997V13.332H27.9997Z" fill="white"/>
</g>
<defs>
<clipPath id="clip0_3357_319">
<rect width="32" height="32" fill="white"/>
</clipPath>
</defs>
</svg>
