<svg width="32" height="32" viewBox="0 0 32 32" fill="none" xmlns="http://www.w3.org/2000/svg">
<g clip-path="url(#clip0_3357_509)">
<path d="M32.0001 30.1148L23.6575 21.7708C25.822 19.1222 26.8859 15.743 26.629 12.332C26.3721 8.92111 24.8142 5.73936 22.2773 3.44482C19.7405 1.15029 16.4188 -0.0815075 12.9993 0.00418945C9.57977 0.0898864 6.32398 1.48652 3.90525 3.90525C1.48652 6.32398 0.0898864 9.57977 0.00418945 12.9993C-0.0815075 16.4188 1.15029 19.7405 3.44482 22.2773C5.73936 24.8142 8.92111 26.3721 12.332 26.629C15.743 26.8859 19.1222 25.822 21.7708 23.6575L30.1148 32.0001L32.0001 30.1148Z" fill="white"/>
</g>
<defs>
<clipPath id="clip0_3357_509">
<rect width="32" height="32" fill="white"/>
</clipPath>
</defs>
</svg>
