<svg width="100" height="48" viewBox="0 0 100 48" fill="none" xmlns="http://www.w3.org/2000/svg">
<path d="M39.8061 39.422C30.3772 46.996 16.6026 45.48 9.04186 36.0347C1.48107 26.5893 2.99442 12.7907 12.4226 5.21665C15.4043 2.81309 18.9657 1.23912 22.7479 0.65332C17.7156 0.851192 12.8802 2.66517 8.95601 5.82732C-1.20424 13.9887 -2.83473 28.8547 5.31237 39.03C13.4588 49.2073 28.2989 50.8407 38.4565 42.6793C42.3897 39.5286 45.2073 35.1944 46.4931 30.3167C45.1017 33.8878 42.7952 37.0284 39.8061 39.422Z" fill="#FBFBFB"/>
<path d="M71.835 40.4096C71.1211 40.4098 70.4365 40.694 69.9316 41.1997C69.4268 41.7053 69.1432 42.3911 69.143 43.1063C69.143 43.4223 69.1996 43.7263 69.3007 44.0076L67.3162 44.131L69.4072 44.261C69.5943 44.6529 69.8722 44.9944 70.2178 45.257L66.6567 45.4803L71.5255 45.7836C71.9026 45.8276 72.2847 45.7912 72.6468 45.6768C73.0088 45.5624 73.3426 45.3726 73.6263 45.1198C73.9099 44.867 74.1369 44.557 74.2925 44.2101C74.4481 43.8632 74.5287 43.4873 74.5289 43.107C74.5282 42.3916 74.2441 41.7057 73.739 41.2C73.2339 40.6942 72.5491 40.41 71.835 40.4096ZM91.1965 40.4096C90.4826 40.4098 89.798 40.694 89.2932 41.1997C88.7883 41.7053 88.5047 42.3911 88.5045 43.1063C88.5045 43.4249 88.5631 43.7303 88.6642 44.0136L86.7682 44.1336L88.764 44.259C88.9517 44.6566 89.2336 45.0022 89.5853 45.2656L86.1087 45.4823L90.8224 45.777C90.9456 45.7943 91.0687 45.805 91.1965 45.805L91.2484 45.803L91.289 45.805V45.801C91.9865 45.7776 92.6477 45.4838 93.133 44.9814C93.6184 44.479 93.8899 43.8074 93.8904 43.1083C93.8895 42.3928 93.6054 41.7069 93.1004 41.201C92.5954 40.6951 91.9107 40.4105 91.1965 40.4096ZM23.3091 33.369V17.127H19.9476V23.1936H13.2946V17.127H11.6022C10.6725 17.127 9.93311 17.939 9.93311 18.8703V33.369H13.2952V26.1803H19.9483V33.369H23.3097H23.3091ZM28.0055 22.2623C28.0055 21.2356 27.5037 20.733 26.4789 20.733H24.8337V33.369H28.0055V22.2623ZM28.0055 18.6803C28.0295 17.6536 27.5277 17.127 26.4789 17.127H24.8337V19.611H28.0055V18.6803ZM33.4407 18.6803C33.4407 17.8436 32.7486 17.127 31.9147 17.127H30.2689V33.369H33.4407V18.6803ZM40.4025 25.487C37.2075 25.797 35.0146 26.609 34.9434 29.6436C34.9434 32.437 37.0404 33.8476 40.0698 33.609C43.4792 33.371 45.5768 31.8183 45.5768 28.331V24.0316C45.505 21.6903 43.7407 20.545 40.2595 20.545C37.3519 20.545 35.7067 21.6903 35.3241 24.0316H38.4952C38.6616 23.4343 39.2818 23.1483 40.4019 23.1483C41.7142 23.1483 42.3804 23.5056 42.4516 24.2223C42.4536 24.9136 41.7622 25.3203 40.4019 25.487H40.4025ZM42.5022 27.0163V28.1856C42.5022 29.977 41.4294 31.0276 39.6652 31.0276C38.6642 31.0276 38.1392 30.549 38.068 29.5463C38.068 28.615 38.7122 28.017 39.9746 27.779C40.8396 27.6064 41.686 27.351 42.5022 27.0163ZM49.2238 17.127H47.5793V33.369H50.7511V18.6803C50.7511 17.8436 50.059 17.127 49.2245 17.127H49.2238Z" fill="white"/>
<path d="M69.5776 20.257V33.369H72.7021V17.127H67.7661L65.0588 27.6903L66.4085 32.799L69.5776 20.257ZM79.5189 25.487C76.3231 25.797 74.131 26.609 74.0598 29.6436C74.0598 32.437 76.1568 33.8476 79.1861 33.609C82.5955 33.371 84.6925 31.8183 84.6925 28.331V24.0316C84.6213 21.6903 82.8571 20.545 79.3765 20.545C76.4682 20.545 74.8231 21.6903 74.4404 24.0316H77.6122C77.7786 23.4343 78.3988 23.1483 79.5189 23.1483C80.8313 23.1483 81.4974 23.5056 81.5686 24.2223C81.5706 24.9136 80.8792 25.3203 79.5189 25.487ZM81.6186 27.0163V28.1856C81.6186 29.977 80.5458 31.0276 78.7815 31.0276C77.7806 31.0276 77.2555 30.549 77.1836 29.5463C77.1836 28.615 77.8285 28.017 79.091 27.779C79.9559 27.6064 80.8023 27.351 81.6186 27.0163ZM89.4382 26.8003C89.4382 24.961 90.3207 24.0296 92.0849 24.0296H93.1571V20.733H92.7032C88.4826 20.733 86.3143 22.763 86.2172 26.8476V33.369H89.4362V26.7996H89.4382V26.8003ZM98.3786 23.003C99.2611 23.003 99.9525 22.3336 99.9525 21.4263V20.733H98.0458V18.7276C98.0458 17.8916 97.3537 17.1276 96.5192 17.1276H94.8741V30.9323C94.8501 32.3423 95.4231 33.081 96.6143 33.2023C97.7238 33.3168 98.8416 33.3246 99.9525 33.2256V30.8136H98.9756C98.3546 30.8136 98.0458 30.5276 98.0458 30.0016V23.003H98.3786ZM56.4412 20.9843V33.369H59.5624V23.1263L59.0227 20.9843H56.4406H56.4412Z" fill="#FBFBFB"/>
<path d="M96.8306 35.5716H66.1981L64.5942 29.4983L61.3266 17.127H55.7597C55.2991 17.1284 54.8577 17.3123 54.5321 17.6385C54.2064 17.9648 54.0228 18.4069 54.0214 18.8683V20.255H59.563L63.4349 35.5716L64.2269 38.699H99.9524C99.9521 37.8696 99.6231 37.0744 99.0377 36.488C98.4523 35.9016 97.6584 35.572 96.8306 35.5716Z" fill="white"/>
</svg>
