<svg width="41" height="48" viewBox="0 0 41 48" fill="none" xmlns="http://www.w3.org/2000/svg">
<path d="M7.1735 23.103C7.1735 23.103 12.6846 20.4944 12.6448 14.1836H26.0015C26.0015 14.1836 26.4656 20.9883 32.1389 23.1735L32.048 41.5424C32.048 41.5424 31.0464 46.2853 27.1205 46.6508H11.0358C11.0358 46.6508 6.62973 45.1679 6.62973 40.4529L7.1742 23.103H7.1735Z" fill="#161616"/>
<path d="M25.5604 47.9315H13.2074C9.07461 47.9315 5.71272 44.5766 5.71272 40.4531V23.9785C5.71272 23.1346 6.22225 22.3918 7.00995 22.0856C9.67011 21.0533 10.7597 18.308 11.1728 16.7638C11.7984 14.4209 11.7529 11.8625 11.7096 9.38856C11.6984 8.74966 11.6865 8.08845 11.6865 7.44049C11.6865 3.35323 15.0184 0.0283203 19.1148 0.0283203H19.4895C23.5852 0.0283203 26.9171 3.35323 26.9171 7.44118V10.5966C26.9171 13.3747 27.2078 15.6045 27.8054 17.4131C28.6029 19.8257 29.8939 21.3469 31.7509 22.0639C32.5428 22.3701 33.0552 23.1137 33.0552 23.959V40.4531C33.0552 44.5766 29.6933 47.9315 25.5604 47.9315ZM19.1148 1.85573C16.0283 1.85573 13.5178 4.36109 13.5178 7.44049C13.5178 8.07241 13.5296 8.72525 13.5408 9.35647C13.587 11.956 13.6345 14.6448 12.9425 17.2346C12.5546 18.686 11.9277 20.0196 11.1295 21.0923C10.188 22.3569 9.02569 23.2643 7.67394 23.7888C7.59566 23.8195 7.54464 23.8934 7.54464 23.9778V40.4524C7.54464 43.5688 10.0846 46.1034 13.2074 46.1034H25.5604C28.6833 46.1034 31.2232 43.5688 31.2232 40.4531V23.959C31.2232 23.8753 31.1715 23.8 31.0904 23.7686C28.7231 22.8549 27.0324 20.9089 26.0665 17.9858C25.4067 15.9889 25.0859 13.5721 25.0859 10.5966V7.44118C25.0859 4.36109 22.5753 1.85573 19.4895 1.85573H19.1148Z" fill="#171717"/>
<path d="M12.6448 13.2695H26.0015V15.0969H12.6448V13.2695Z" fill="#171717"/>
<path d="M39.4532 26.0469C39.4287 26.0469 39.4036 26.0455 39.3784 26.0434C38.8815 26.003 38.5117 25.5677 38.5516 25.0718C38.6354 24.0514 38.2482 23.2095 37.4913 22.7624C36.1703 21.9813 34.5816 22.3998 33.5339 23.0512C33.2054 23.2556 32.8762 23.5053 32.554 23.7947C32.1835 24.1274 31.6125 24.0981 31.2784 23.7278C30.9443 23.3581 30.9744 22.7876 31.3448 22.4549C31.7453 22.095 32.1598 21.7811 32.5784 21.5202C33.4591 20.9734 34.4334 20.6386 35.3959 20.5535C36.4799 20.458 37.5227 20.6853 38.4118 21.2112C39.7663 22.012 40.4918 23.5095 40.3527 25.2183C40.3143 25.6898 39.9187 26.0469 39.4532 26.0469Z" fill="#161616"/>
<path d="M7.95905 38.0996C6.98194 38.0996 6.02999 37.9447 5.12556 37.6337C3.27128 36.9962 1.75948 35.7407 0.869034 34.0981C0.123268 32.7262 -0.136737 31.1826 0.115579 29.6328C0.195957 29.1411 0.660052 28.8077 1.1528 28.8872C1.64485 28.9674 1.97965 29.4312 1.89927 29.9223C1.71125 31.0745 1.90416 32.2219 2.45632 33.2395C3.13149 34.4838 4.28824 35.4387 5.71337 35.929C7.30555 36.4765 9.10811 36.4103 10.9274 35.7372C13.7651 34.6868 15.7368 33.2751 17.3283 31.0424C16.614 30.2382 15.9745 29.1983 15.5181 28.0942C15.2685 27.4908 15.1497 26.8498 15.1728 26.2402C15.2014 25.5037 15.4412 24.8474 15.8661 24.3431C16.4896 23.601 17.596 22.8484 19.3273 23.4719C19.9787 23.707 20.6112 24.0969 21.206 24.5182C21.8211 23.8332 22.4774 23.3373 23.1966 23.0144C24.375 22.485 25.7505 22.4822 26.7004 23.006C27.4524 23.421 27.9354 24.1471 28.0612 25.0524C28.1681 25.8238 28.0123 26.6427 27.5845 27.5438C28.0982 27.6854 28.6113 27.8424 29.1117 27.9958C31.0436 28.5887 32.8692 29.1481 34.7018 28.8809C36.7762 28.5775 38.395 26.9761 38.5508 25.0713C38.5914 24.5754 39.0268 24.2043 39.5245 24.2461C40.0221 24.2866 40.3925 24.7218 40.3513 25.2177C40.2395 26.5932 39.6118 27.8989 38.5844 28.8942C37.6115 29.8372 36.3254 30.4656 34.9632 30.6651C32.7273 30.9908 30.6193 30.3442 28.5812 29.72C27.927 29.5191 27.3098 29.3294 26.692 29.1732L26.6794 29.1697C26.1901 29.9718 25.6408 30.7425 24.9894 31.387C23.7453 32.6173 22.3313 33.1614 20.7867 33.0051C20.057 32.9305 19.3559 32.6738 18.6898 32.2379C16.9048 34.6805 14.6703 36.275 11.5551 37.4272C10.3459 37.875 9.13397 38.0996 7.95836 38.0996H7.95905ZM19.6781 30.7244C20.0821 30.9887 20.5155 31.1638 20.9712 31.2105C21.9797 31.3131 22.8527 30.9622 23.718 30.1057C24.1395 29.69 24.5197 29.1892 24.8712 28.6521C24.1583 28.4185 23.4098 28.1311 22.6878 27.7698C22.3397 27.5955 21.9727 27.3444 21.589 27.0598C21.2452 27.6331 20.9383 28.2469 20.658 28.8453C20.3449 29.5149 20.0199 30.1399 19.6781 30.7244ZM18.1104 25.0441C17.7763 25.0441 17.5114 25.1912 17.2507 25.5016C16.8572 25.9689 16.9362 26.7954 17.1892 27.4064C17.4646 28.0725 17.8567 28.793 18.339 29.4271C18.5731 29.0037 18.8003 28.5559 19.0211 28.0823C19.3287 27.4267 19.6907 26.6887 20.1359 25.971C19.6551 25.632 19.1665 25.3307 18.715 25.1682C18.4872 25.0859 18.2887 25.0441 18.1104 25.0441ZM22.6598 25.6069C22.9757 25.8413 23.2644 26.0415 23.4978 26.1579C24.2576 26.5388 25.0495 26.8261 25.8071 27.0577C26.1873 26.3567 26.339 25.7813 26.2719 25.3C26.209 24.8432 25.9874 24.6723 25.8274 24.5844C25.3717 24.3333 24.5952 24.3633 23.9389 24.6584C23.4678 24.8704 23.0442 25.2003 22.6598 25.6069Z" fill="#F7BA18"/>
<path d="M1.00884 30.6793C0.961315 30.6793 0.912389 30.6751 0.863463 30.6674C0.370713 30.5872 0.0366205 30.1241 0.116299 29.633C0.560125 26.9122 2.83447 24.3182 6.52066 22.3304C6.95959 22.0932 7.50826 22.2571 7.7452 22.6952C7.98284 23.1332 7.81859 23.68 7.37966 23.9165C4.19739 25.633 2.25155 27.7666 1.89999 29.9218C1.828 30.3647 1.44428 30.6793 1.00954 30.6793H1.00884Z" fill="#161616"/>
</svg>
